<mxfile host="app.diagrams.net" modified="2024-07-25T09:52:19.944Z" agent="Mozilla/5.0 (Macintosh; Intel Mac OS X 10_15_7) AppleWebKit/537.36 (KHTML, like Gecko) Chrome/126.0.0.0 Safari/537.36" etag="kKGs1Mhm43kLug--9WYw" version="24.0.0" type="github">
  <diagram name="Page-1" id="l_mch03_H2fgWvcMSi8S">
    <mxGraphModel dx="1266" dy="651" grid="1" gridSize="10" guides="1" tooltips="1" connect="1" arrows="1" fold="1" page="1" pageScale="1" pageWidth="850" pageHeight="1100" math="0" shadow="0">
      <root>
        <mxCell id="0" />
        <mxCell id="1" parent="0" />
        <mxCell id="IM-L45CHT0sqmJNXlmkT-11" style="edgeStyle=orthogonalEdgeStyle;rounded=0;orthogonalLoop=1;jettySize=auto;html=1;exitX=0.75;exitY=0.1;exitDx=0;exitDy=0;exitPerimeter=0;entryX=0;entryY=0.5;entryDx=0;entryDy=0;" edge="1" parent="1" source="IM-L45CHT0sqmJNXlmkT-1" target="IM-L45CHT0sqmJNXlmkT-2">
          <mxGeometry relative="1" as="geometry" />
        </mxCell>
        <mxCell id="IM-L45CHT0sqmJNXlmkT-12" style="edgeStyle=orthogonalEdgeStyle;rounded=0;orthogonalLoop=1;jettySize=auto;html=1;exitX=1;exitY=0.3333333333333333;exitDx=0;exitDy=0;exitPerimeter=0;" edge="1" parent="1" source="IM-L45CHT0sqmJNXlmkT-1" target="IM-L45CHT0sqmJNXlmkT-4">
          <mxGeometry relative="1" as="geometry" />
        </mxCell>
        <mxCell id="IM-L45CHT0sqmJNXlmkT-13" style="edgeStyle=orthogonalEdgeStyle;rounded=0;orthogonalLoop=1;jettySize=auto;html=1;exitX=0.5;exitY=0.5;exitDx=0;exitDy=0;exitPerimeter=0;" edge="1" parent="1" source="IM-L45CHT0sqmJNXlmkT-1" target="IM-L45CHT0sqmJNXlmkT-3">
          <mxGeometry relative="1" as="geometry" />
        </mxCell>
        <mxCell id="IM-L45CHT0sqmJNXlmkT-14" style="edgeStyle=orthogonalEdgeStyle;rounded=0;orthogonalLoop=1;jettySize=auto;html=1;exitX=0.5;exitY=0.5;exitDx=0;exitDy=0;exitPerimeter=0;" edge="1" parent="1" source="IM-L45CHT0sqmJNXlmkT-1" target="IM-L45CHT0sqmJNXlmkT-6">
          <mxGeometry relative="1" as="geometry">
            <Array as="points">
              <mxPoint x="285" y="240" />
              <mxPoint x="285" y="290" />
            </Array>
          </mxGeometry>
        </mxCell>
        <mxCell id="IM-L45CHT0sqmJNXlmkT-15" style="edgeStyle=orthogonalEdgeStyle;rounded=0;orthogonalLoop=1;jettySize=auto;html=1;exitX=0.5;exitY=0.5;exitDx=0;exitDy=0;exitPerimeter=0;entryX=0;entryY=0.5;entryDx=0;entryDy=0;" edge="1" parent="1" source="IM-L45CHT0sqmJNXlmkT-1" target="IM-L45CHT0sqmJNXlmkT-5">
          <mxGeometry relative="1" as="geometry" />
        </mxCell>
        <mxCell id="IM-L45CHT0sqmJNXlmkT-16" style="edgeStyle=orthogonalEdgeStyle;rounded=0;orthogonalLoop=1;jettySize=auto;html=1;exitX=1;exitY=1;exitDx=0;exitDy=0;exitPerimeter=0;entryX=0;entryY=0.5;entryDx=0;entryDy=0;" edge="1" parent="1" source="IM-L45CHT0sqmJNXlmkT-1" target="IM-L45CHT0sqmJNXlmkT-7">
          <mxGeometry relative="1" as="geometry" />
        </mxCell>
        <mxCell id="IM-L45CHT0sqmJNXlmkT-1" value="Actor" style="shape=umlActor;verticalLabelPosition=bottom;verticalAlign=top;html=1;outlineConnect=0;" vertex="1" parent="1">
          <mxGeometry x="50" y="210" width="30" height="60" as="geometry" />
        </mxCell>
        <mxCell id="IM-L45CHT0sqmJNXlmkT-2" value="Register" style="ellipse;whiteSpace=wrap;html=1;" vertex="1" parent="1">
          <mxGeometry x="305" y="80" width="120" height="80" as="geometry" />
        </mxCell>
        <mxCell id="IM-L45CHT0sqmJNXlmkT-3" value="Login" style="ellipse;whiteSpace=wrap;html=1;" vertex="1" parent="1">
          <mxGeometry x="305" y="200" width="120" height="80" as="geometry" />
        </mxCell>
        <mxCell id="IM-L45CHT0sqmJNXlmkT-4" value="create account" style="ellipse;whiteSpace=wrap;html=1;" vertex="1" parent="1">
          <mxGeometry x="500" y="150" width="120" height="80" as="geometry" />
        </mxCell>
        <mxCell id="IM-L45CHT0sqmJNXlmkT-5" value="view transaction history (per account, with date range)" style="ellipse;whiteSpace=wrap;html=1;" vertex="1" parent="1">
          <mxGeometry x="305" y="310" width="120" height="80" as="geometry" />
        </mxCell>
        <mxCell id="IM-L45CHT0sqmJNXlmkT-6" value="View account balance" style="ellipse;whiteSpace=wrap;html=1;" vertex="1" parent="1">
          <mxGeometry x="490" y="270" width="120" height="80" as="geometry" />
        </mxCell>
        <mxCell id="IM-L45CHT0sqmJNXlmkT-7" value="Transaction" style="ellipse;whiteSpace=wrap;html=1;" vertex="1" parent="1">
          <mxGeometry x="400" y="400" width="120" height="80" as="geometry" />
        </mxCell>
        <mxCell id="IM-L45CHT0sqmJNXlmkT-8" value="credit" style="ellipse;whiteSpace=wrap;html=1;" vertex="1" parent="1">
          <mxGeometry x="290" y="490" width="120" height="80" as="geometry" />
        </mxCell>
        <mxCell id="IM-L45CHT0sqmJNXlmkT-9" value="debit" style="ellipse;whiteSpace=wrap;html=1;" vertex="1" parent="1">
          <mxGeometry x="530" y="490" width="120" height="80" as="geometry" />
        </mxCell>
        <mxCell id="IM-L45CHT0sqmJNXlmkT-17" value="" style="endArrow=none;dashed=1;html=1;dashPattern=1 3;strokeWidth=2;rounded=0;entryX=0;entryY=1;entryDx=0;entryDy=0;exitX=1;exitY=0;exitDx=0;exitDy=0;" edge="1" parent="1" source="IM-L45CHT0sqmJNXlmkT-8" target="IM-L45CHT0sqmJNXlmkT-7">
          <mxGeometry width="50" height="50" relative="1" as="geometry">
            <mxPoint x="400" y="400" as="sourcePoint" />
            <mxPoint x="450" y="350" as="targetPoint" />
          </mxGeometry>
        </mxCell>
        <mxCell id="IM-L45CHT0sqmJNXlmkT-18" value="" style="endArrow=none;dashed=1;html=1;dashPattern=1 3;strokeWidth=2;rounded=0;exitX=1.025;exitY=0.613;exitDx=0;exitDy=0;exitPerimeter=0;entryX=0;entryY=0;entryDx=0;entryDy=0;" edge="1" parent="1" source="IM-L45CHT0sqmJNXlmkT-7" target="IM-L45CHT0sqmJNXlmkT-9">
          <mxGeometry width="50" height="50" relative="1" as="geometry">
            <mxPoint x="570" y="460" as="sourcePoint" />
            <mxPoint x="620" y="410" as="targetPoint" />
          </mxGeometry>
        </mxCell>
      </root>
    </mxGraphModel>
  </diagram>
</mxfile>
